<mxfile host="app.diagrams.net" modified="2024-05-18T01:47:03.196Z" agent="Mozilla/5.0 (Windows NT 10.0; Win64; x64) AppleWebKit/537.36 (KHTML, like Gecko) Chrome/124.0.0.0 Safari/537.36" etag="zcmGGu5O3UaS79Aq30F5" version="24.4.4" type="device">
  <diagram name="Page-1" id="Q7NgNL374i-E7LxEYKXi">
    <mxGraphModel dx="2759" dy="1027" grid="1" gridSize="10" guides="1" tooltips="1" connect="1" arrows="1" fold="1" page="1" pageScale="1" pageWidth="850" pageHeight="1100" math="0" shadow="0">
      <root>
        <mxCell id="0" />
        <mxCell id="1" parent="0" />
        <mxCell id="oxRKUG9d2zuZvRpha7MQ-1" value="" style="rounded=0;whiteSpace=wrap;html=1;fillColor=none;" vertex="1" parent="1">
          <mxGeometry x="-110" y="490" width="1940" height="500" as="geometry" />
        </mxCell>
        <mxCell id="oxRKUG9d2zuZvRpha7MQ-2" value="&lt;font face=&quot;Helvetica&quot; style=&quot;font-size: 35px;&quot;&gt;&lt;b&gt;&lt;font style=&quot;font-size: 35px;&quot;&gt;Coordenador - Analisar Formulário de Justificativa de Faltas&lt;/font&gt;&lt;/b&gt;&lt;/font&gt;" style="text;html=1;align=center;verticalAlign=middle;whiteSpace=wrap;rounded=0;" vertex="1" parent="1">
          <mxGeometry x="-110" y="520" width="1940" height="30" as="geometry" />
        </mxCell>
        <mxCell id="oxRKUG9d2zuZvRpha7MQ-68" style="edgeStyle=orthogonalEdgeStyle;rounded=0;orthogonalLoop=1;jettySize=auto;html=1;exitX=1;exitY=0.5;exitDx=0;exitDy=0;exitPerimeter=0;entryX=0;entryY=0.5;entryDx=0;entryDy=0;" edge="1" source="oxRKUG9d2zuZvRpha7MQ-69" target="oxRKUG9d2zuZvRpha7MQ-71" parent="1">
          <mxGeometry relative="1" as="geometry" />
        </mxCell>
        <mxCell id="oxRKUG9d2zuZvRpha7MQ-69" value="" style="verticalLabelPosition=bottom;verticalAlign=top;html=1;shape=mxgraph.flowchart.on-page_reference;fillColor=#000000;" vertex="1" parent="1">
          <mxGeometry x="-70" y="705" width="30" height="30" as="geometry" />
        </mxCell>
        <mxCell id="oxRKUG9d2zuZvRpha7MQ-70" style="edgeStyle=orthogonalEdgeStyle;rounded=0;orthogonalLoop=1;jettySize=auto;html=1;exitX=1;exitY=0.5;exitDx=0;exitDy=0;entryX=0;entryY=0.5;entryDx=0;entryDy=0;" edge="1" source="oxRKUG9d2zuZvRpha7MQ-71" parent="1">
          <mxGeometry relative="1" as="geometry">
            <mxPoint x="190" y="720" as="targetPoint" />
          </mxGeometry>
        </mxCell>
        <mxCell id="oxRKUG9d2zuZvRpha7MQ-71" value="Coordenador - Seleciona um formulário &lt;br&gt;para visualizar" style="rounded=1;whiteSpace=wrap;html=1;fillColor=#CCE5FF;" vertex="1" parent="1">
          <mxGeometry x="10" y="690" width="140" height="60" as="geometry" />
        </mxCell>
        <mxCell id="oxRKUG9d2zuZvRpha7MQ-78" style="edgeStyle=orthogonalEdgeStyle;rounded=0;orthogonalLoop=1;jettySize=auto;html=1;exitX=1;exitY=0.75;exitDx=0;exitDy=0;entryX=0;entryY=0.5;entryDx=0;entryDy=0;" edge="1" parent="1" source="oxRKUG9d2zuZvRpha7MQ-72" target="oxRKUG9d2zuZvRpha7MQ-76">
          <mxGeometry relative="1" as="geometry" />
        </mxCell>
        <mxCell id="oxRKUG9d2zuZvRpha7MQ-79" style="edgeStyle=orthogonalEdgeStyle;rounded=0;orthogonalLoop=1;jettySize=auto;html=1;exitX=1;exitY=0.25;exitDx=0;exitDy=0;" edge="1" parent="1" source="oxRKUG9d2zuZvRpha7MQ-72" target="oxRKUG9d2zuZvRpha7MQ-73">
          <mxGeometry relative="1" as="geometry" />
        </mxCell>
        <mxCell id="oxRKUG9d2zuZvRpha7MQ-72" value="" style="rounded=1;whiteSpace=wrap;html=1;arcSize=40;fillColor=#000000;direction=south;rotation=-90;" vertex="1" parent="1">
          <mxGeometry x="125" y="710.5" width="150" height="20" as="geometry" />
        </mxCell>
        <mxCell id="oxRKUG9d2zuZvRpha7MQ-80" style="edgeStyle=orthogonalEdgeStyle;rounded=0;orthogonalLoop=1;jettySize=auto;html=1;exitX=1;exitY=0.5;exitDx=0;exitDy=0;entryX=0;entryY=0.5;entryDx=0;entryDy=0;" edge="1" parent="1" source="oxRKUG9d2zuZvRpha7MQ-73" target="oxRKUG9d2zuZvRpha7MQ-77">
          <mxGeometry relative="1" as="geometry" />
        </mxCell>
        <mxCell id="oxRKUG9d2zuZvRpha7MQ-73" value="Sistema - Exibe as informações preenchidas pelo professor" style="rounded=1;whiteSpace=wrap;html=1;fillColor=#CCE5FF;" vertex="1" parent="1">
          <mxGeometry x="257" y="653" width="145" height="60" as="geometry" />
        </mxCell>
        <mxCell id="oxRKUG9d2zuZvRpha7MQ-81" style="edgeStyle=orthogonalEdgeStyle;rounded=0;orthogonalLoop=1;jettySize=auto;html=1;exitX=1;exitY=0.5;exitDx=0;exitDy=0;" edge="1" parent="1" source="oxRKUG9d2zuZvRpha7MQ-76" target="oxRKUG9d2zuZvRpha7MQ-77">
          <mxGeometry relative="1" as="geometry">
            <mxPoint x="450" y="730" as="targetPoint" />
          </mxGeometry>
        </mxCell>
        <mxCell id="oxRKUG9d2zuZvRpha7MQ-76" value="Sistema - Exibe o documento anexado ao formulário" style="rounded=1;whiteSpace=wrap;html=1;fillColor=#CCE5FF;" vertex="1" parent="1">
          <mxGeometry x="257" y="727.5" width="145" height="60" as="geometry" />
        </mxCell>
        <mxCell id="oxRKUG9d2zuZvRpha7MQ-83" style="edgeStyle=orthogonalEdgeStyle;rounded=0;orthogonalLoop=1;jettySize=auto;html=1;exitX=1;exitY=0.5;exitDx=0;exitDy=0;entryX=0;entryY=0.5;entryDx=0;entryDy=0;" edge="1" parent="1" source="oxRKUG9d2zuZvRpha7MQ-77" target="oxRKUG9d2zuZvRpha7MQ-82">
          <mxGeometry relative="1" as="geometry" />
        </mxCell>
        <mxCell id="oxRKUG9d2zuZvRpha7MQ-77" value="" style="rounded=1;whiteSpace=wrap;html=1;arcSize=40;fillColor=#000000;direction=south;rotation=-90;" vertex="1" parent="1">
          <mxGeometry x="411" y="710" width="150" height="20" as="geometry" />
        </mxCell>
        <mxCell id="oxRKUG9d2zuZvRpha7MQ-85" style="edgeStyle=orthogonalEdgeStyle;rounded=0;orthogonalLoop=1;jettySize=auto;html=1;exitX=1;exitY=0.5;exitDx=0;exitDy=0;entryX=0;entryY=0.5;entryDx=0;entryDy=0;" edge="1" parent="1" source="oxRKUG9d2zuZvRpha7MQ-82" target="oxRKUG9d2zuZvRpha7MQ-84">
          <mxGeometry relative="1" as="geometry" />
        </mxCell>
        <mxCell id="oxRKUG9d2zuZvRpha7MQ-82" value="Coordenador - Avalia a justificativa de falta enviada pelo professor" style="rounded=1;whiteSpace=wrap;html=1;fillColor=#CCE5FF;" vertex="1" parent="1">
          <mxGeometry x="540" y="690" width="130" height="60" as="geometry" />
        </mxCell>
        <mxCell id="oxRKUG9d2zuZvRpha7MQ-87" style="edgeStyle=orthogonalEdgeStyle;rounded=0;orthogonalLoop=1;jettySize=auto;html=1;exitX=1;exitY=0.5;exitDx=0;exitDy=0;entryX=0;entryY=0.5;entryDx=0;entryDy=0;" edge="1" parent="1" source="oxRKUG9d2zuZvRpha7MQ-84">
          <mxGeometry relative="1" as="geometry">
            <mxPoint x="890" y="720" as="targetPoint" />
          </mxGeometry>
        </mxCell>
        <mxCell id="oxRKUG9d2zuZvRpha7MQ-88" value="Justificativa aceita" style="edgeLabel;html=1;align=center;verticalAlign=middle;resizable=0;points=[];" vertex="1" connectable="0" parent="oxRKUG9d2zuZvRpha7MQ-87">
          <mxGeometry x="0.0134" y="1" relative="1" as="geometry">
            <mxPoint as="offset" />
          </mxGeometry>
        </mxCell>
        <mxCell id="oxRKUG9d2zuZvRpha7MQ-90" style="edgeStyle=orthogonalEdgeStyle;rounded=0;orthogonalLoop=1;jettySize=auto;html=1;exitX=0.5;exitY=1;exitDx=0;exitDy=0;entryX=0;entryY=0.5;entryDx=0;entryDy=0;" edge="1" parent="1" source="oxRKUG9d2zuZvRpha7MQ-84" target="oxRKUG9d2zuZvRpha7MQ-92">
          <mxGeometry relative="1" as="geometry">
            <mxPoint x="887.5" y="760.5" as="targetPoint" />
          </mxGeometry>
        </mxCell>
        <mxCell id="oxRKUG9d2zuZvRpha7MQ-91" value="Justificativa Recusada" style="edgeLabel;html=1;align=center;verticalAlign=middle;resizable=0;points=[];" vertex="1" connectable="0" parent="oxRKUG9d2zuZvRpha7MQ-90">
          <mxGeometry x="0.0384" y="4" relative="1" as="geometry">
            <mxPoint x="31" y="4" as="offset" />
          </mxGeometry>
        </mxCell>
        <mxCell id="oxRKUG9d2zuZvRpha7MQ-84" value="" style="rhombus;whiteSpace=wrap;html=1;" vertex="1" parent="1">
          <mxGeometry x="710" y="700.5" width="35" height="40" as="geometry" />
        </mxCell>
        <mxCell id="oxRKUG9d2zuZvRpha7MQ-98" style="edgeStyle=orthogonalEdgeStyle;rounded=0;orthogonalLoop=1;jettySize=auto;html=1;exitX=1;exitY=0.5;exitDx=0;exitDy=0;entryX=0.5;entryY=1;entryDx=0;entryDy=0;" edge="1" parent="1" source="oxRKUG9d2zuZvRpha7MQ-92" target="oxRKUG9d2zuZvRpha7MQ-95">
          <mxGeometry relative="1" as="geometry" />
        </mxCell>
        <mxCell id="oxRKUG9d2zuZvRpha7MQ-92" value="Coordenador - Envia feedback para professor informando recusa" style="rounded=1;whiteSpace=wrap;html=1;fillColor=#CCE5FF;" vertex="1" parent="1">
          <mxGeometry x="1140" y="900" width="150" height="60" as="geometry" />
        </mxCell>
        <mxCell id="oxRKUG9d2zuZvRpha7MQ-97" style="edgeStyle=orthogonalEdgeStyle;rounded=0;orthogonalLoop=1;jettySize=auto;html=1;exitX=1;exitY=0.5;exitDx=0;exitDy=0;entryX=0;entryY=0.5;entryDx=0;entryDy=0;" edge="1" parent="1" source="oxRKUG9d2zuZvRpha7MQ-95" target="oxRKUG9d2zuZvRpha7MQ-114">
          <mxGeometry relative="1" as="geometry" />
        </mxCell>
        <mxCell id="oxRKUG9d2zuZvRpha7MQ-95" value="Coordenador - Confirma decisão e finaliza&lt;br&gt;o processo" style="rounded=1;whiteSpace=wrap;html=1;fillColor=#CCE5FF;" vertex="1" parent="1">
          <mxGeometry x="1360" y="795" width="140" height="60" as="geometry" />
        </mxCell>
        <mxCell id="oxRKUG9d2zuZvRpha7MQ-96" value="" style="ellipse;html=1;shape=endState;fillColor=#000000;strokeColor=#000000;" vertex="1" parent="1">
          <mxGeometry x="1760" y="810" width="30" height="30" as="geometry" />
        </mxCell>
        <mxCell id="oxRKUG9d2zuZvRpha7MQ-103" style="edgeStyle=orthogonalEdgeStyle;rounded=0;orthogonalLoop=1;jettySize=auto;html=1;exitX=1;exitY=0.5;exitDx=0;exitDy=0;entryX=0;entryY=0.5;entryDx=0;entryDy=0;" edge="1" parent="1" source="oxRKUG9d2zuZvRpha7MQ-99" target="oxRKUG9d2zuZvRpha7MQ-108">
          <mxGeometry relative="1" as="geometry">
            <mxPoint x="1040" y="720.3333333333333" as="targetPoint" />
          </mxGeometry>
        </mxCell>
        <mxCell id="oxRKUG9d2zuZvRpha7MQ-109" value="Dados do formulário estão &lt;br&gt;preenchidos corretamente" style="edgeLabel;html=1;align=center;verticalAlign=middle;resizable=0;points=[];" vertex="1" connectable="0" parent="oxRKUG9d2zuZvRpha7MQ-103">
          <mxGeometry x="-0.107" y="2" relative="1" as="geometry">
            <mxPoint as="offset" />
          </mxGeometry>
        </mxCell>
        <mxCell id="oxRKUG9d2zuZvRpha7MQ-110" style="edgeStyle=orthogonalEdgeStyle;rounded=0;orthogonalLoop=1;jettySize=auto;html=1;exitX=0.5;exitY=1;exitDx=0;exitDy=0;entryX=0;entryY=0.5;entryDx=0;entryDy=0;" edge="1" parent="1" source="oxRKUG9d2zuZvRpha7MQ-99" target="oxRKUG9d2zuZvRpha7MQ-100">
          <mxGeometry relative="1" as="geometry" />
        </mxCell>
        <mxCell id="oxRKUG9d2zuZvRpha7MQ-111" value="Há erros no &lt;br&gt;preenchimento do formulário" style="edgeLabel;html=1;align=center;verticalAlign=middle;resizable=0;points=[];" vertex="1" connectable="0" parent="oxRKUG9d2zuZvRpha7MQ-110">
          <mxGeometry x="0.1996" y="-3" relative="1" as="geometry">
            <mxPoint as="offset" />
          </mxGeometry>
        </mxCell>
        <mxCell id="oxRKUG9d2zuZvRpha7MQ-99" value="" style="rhombus;whiteSpace=wrap;html=1;" vertex="1" parent="1">
          <mxGeometry x="887.5" y="700" width="35" height="40" as="geometry" />
        </mxCell>
        <mxCell id="oxRKUG9d2zuZvRpha7MQ-112" style="edgeStyle=orthogonalEdgeStyle;rounded=0;orthogonalLoop=1;jettySize=auto;html=1;exitX=1;exitY=0.5;exitDx=0;exitDy=0;entryX=0;entryY=0.5;entryDx=0;entryDy=0;" edge="1" parent="1" source="oxRKUG9d2zuZvRpha7MQ-100" target="oxRKUG9d2zuZvRpha7MQ-95">
          <mxGeometry relative="1" as="geometry" />
        </mxCell>
        <mxCell id="oxRKUG9d2zuZvRpha7MQ-100" value="Coordenador - Envia os pontos de correção &lt;br&gt;para o professor" style="rounded=1;whiteSpace=wrap;html=1;fillColor=#CCE5FF;" vertex="1" parent="1">
          <mxGeometry x="1140" y="795" width="150" height="60" as="geometry" />
        </mxCell>
        <mxCell id="oxRKUG9d2zuZvRpha7MQ-113" style="edgeStyle=orthogonalEdgeStyle;rounded=0;orthogonalLoop=1;jettySize=auto;html=1;exitX=1;exitY=0.5;exitDx=0;exitDy=0;entryX=0.5;entryY=0;entryDx=0;entryDy=0;" edge="1" parent="1" source="oxRKUG9d2zuZvRpha7MQ-108" target="oxRKUG9d2zuZvRpha7MQ-95">
          <mxGeometry relative="1" as="geometry" />
        </mxCell>
        <mxCell id="oxRKUG9d2zuZvRpha7MQ-108" value="Coordenador - Encaminha o formulario aprovado para a secretaria" style="rounded=1;whiteSpace=wrap;html=1;fillColor=#CCE5FF;" vertex="1" parent="1">
          <mxGeometry x="1140" y="690" width="150" height="60" as="geometry" />
        </mxCell>
        <mxCell id="oxRKUG9d2zuZvRpha7MQ-116" style="edgeStyle=orthogonalEdgeStyle;rounded=0;orthogonalLoop=1;jettySize=auto;html=1;exitX=1;exitY=0.5;exitDx=0;exitDy=0;entryX=0;entryY=0.5;entryDx=0;entryDy=0;" edge="1" parent="1" source="oxRKUG9d2zuZvRpha7MQ-114" target="oxRKUG9d2zuZvRpha7MQ-96">
          <mxGeometry relative="1" as="geometry" />
        </mxCell>
        <mxCell id="oxRKUG9d2zuZvRpha7MQ-114" value="Sistema - Notifica o professor e a secretaria sobre a decisão do coordenador" style="rounded=1;whiteSpace=wrap;html=1;fillColor=#CCE5FF;" vertex="1" parent="1">
          <mxGeometry x="1550" y="795" width="160" height="60" as="geometry" />
        </mxCell>
      </root>
    </mxGraphModel>
  </diagram>
</mxfile>
